<svg width="372" height="410" viewBox="0 0 372 410" fill="none" xmlns="http://www.w3.org/2000/svg">
<path d="M104.434 64L111.394 74.627H97.4741L104.434 64Z" fill="#DAE7FC"/>
<path d="M62.4798 86.528C67.5942 81.5441 76.1767 83.5212 78.762 90.2789L86.9335 111.639C89.796 119.121 83.2854 126.698 75.5293 124.912L51.1918 119.305C43.4357 117.518 40.6509 107.8 46.3138 102.281L62.4798 86.528Z" fill="#DAE7FC"/>
<path d="M71.0807 112.168C74.5847 112.168 76.5527 108.256 76.5527 104.536C76.5527 99.76 73.3127 96.496 67.7447 96.496C60.4727 96.496 55.3127 101.944 55.3127 108.88C55.3127 113.752 58.7447 116.872 64.0247 116.872C65.7527 116.872 67.4087 116.584 68.9207 115.936L68.5607 114.112C67.3367 114.712 65.8727 114.952 64.5767 114.952C60.1127 114.952 57.5447 112.792 57.5447 108.664C57.5447 102.832 61.6727 98.392 67.4087 98.392C71.9207 98.392 74.3447 100.6 74.3447 104.656C74.3447 106.96 73.4567 110.344 71.4887 110.344C70.2887 110.344 70.2167 109.504 70.4087 108.208L71.6087 101.344H69.2327L69.0167 102.544C68.4647 101.608 67.5047 101.128 66.0887 101.128C62.5607 101.128 60.1367 104.392 60.1367 108.016C60.1367 110.536 61.5767 112.168 64.0727 112.168C65.7287 112.168 67.3127 111.352 68.2967 110.104C68.5127 111.376 69.4247 112.168 71.0807 112.168ZM68.5367 105.832C68.5367 108.04 66.9767 110.056 64.9127 110.056C63.3527 110.056 62.6807 109.024 62.6807 107.608C62.6807 105.448 63.9527 103.216 66.1127 103.216C67.7207 103.216 68.5367 104.368 68.5367 105.832Z" fill="white"/>
<path d="M266.315 300.452C266.915 293.246 274.469 288.875 280.722 292.118L300.562 302.407C307.557 306.035 307.668 316.248 300.755 320.247L279.011 332.826C272.099 336.825 263.741 331.384 264.412 323.321L266.315 300.452Z" fill="#DAE7FC"/>
<path d="M286.857 318.224C290.361 318.224 292.329 314.312 292.329 310.592C292.329 305.816 289.089 302.552 283.521 302.552C276.249 302.552 271.089 308 271.089 314.936C271.089 319.808 274.521 322.928 279.801 322.928C281.529 322.928 283.185 322.64 284.697 321.992L284.337 320.168C283.113 320.768 281.649 321.008 280.353 321.008C275.889 321.008 273.321 318.848 273.321 314.72C273.321 308.888 277.449 304.448 283.185 304.448C287.697 304.448 290.121 306.656 290.121 310.712C290.121 313.016 289.233 316.4 287.265 316.4C286.065 316.4 285.993 315.56 286.185 314.264L287.385 307.4H285.009L284.793 308.6C284.241 307.664 283.281 307.184 281.865 307.184C278.337 307.184 275.913 310.448 275.913 314.072C275.913 316.592 277.353 318.224 279.849 318.224C281.505 318.224 283.089 317.408 284.073 316.16C284.289 317.432 285.201 318.224 286.857 318.224ZM284.313 311.888C284.313 314.096 282.753 316.112 280.689 316.112C279.129 316.112 278.457 315.08 278.457 313.664C278.457 311.504 279.729 309.272 281.889 309.272C283.497 309.272 284.313 310.424 284.313 311.888Z" fill="white"/>
<path d="M327.994 41.6146C334.911 41.2849 339.926 48.2217 337.663 54.9886L330.427 76.6312C327.839 84.3727 317.924 86.0342 313.212 79.5163L298.328 58.9283C293.616 52.4103 297.962 43.0465 305.874 42.6693L327.994 41.6146Z" fill="#DAE7FC"/>
<path d="M322.376 65.2242C325.88 65.2242 327.848 61.3122 327.848 57.5922C327.848 52.8162 324.608 49.5522 319.04 49.5522C311.768 49.5522 306.608 55.0002 306.608 61.9362C306.608 66.8082 310.04 69.9282 315.32 69.9282C317.048 69.9282 318.704 69.6402 320.216 68.9922L319.856 67.1682C318.632 67.7682 317.168 68.0082 315.872 68.0082C311.408 68.0082 308.84 65.8482 308.84 61.7202C308.84 55.8882 312.968 51.4482 318.704 51.4482C323.216 51.4482 325.64 53.6562 325.64 57.7122C325.64 60.0162 324.752 63.4002 322.784 63.4002C321.584 63.4002 321.512 62.5602 321.704 61.2642L322.904 54.4002H320.528L320.312 55.6002C319.76 54.6642 318.8 54.1842 317.384 54.1842C313.856 54.1842 311.432 57.4482 311.432 61.0722C311.432 63.5922 312.872 65.2242 315.368 65.2242C317.024 65.2242 318.608 64.4082 319.592 63.1602C319.808 64.4322 320.72 65.2242 322.376 65.2242ZM319.832 58.8882C319.832 61.0962 318.272 63.1122 316.208 63.1122C314.648 63.1122 313.976 62.0802 313.976 60.6642C313.976 58.5042 315.248 56.2722 317.408 56.2722C319.016 56.2722 319.832 57.4242 319.832 58.8882Z" fill="white"/>
<path d="M218.817 95.6012L213.279 106.859L204.989 97.0021L218.817 95.6012Z" fill="#DAE7FC"/>
<path d="M34.8589 186.031L48.7726 186.383L41.4698 196.83L34.8589 186.031Z" fill="#DAE7FC"/>
<path d="M352.383 219.996L341.578 227.732L339.381 215.614L352.383 219.996Z" fill="#DAE7FC"/>
<path d="M231.51 325.996L220.704 333.732L218.508 321.614L231.51 325.996Z" fill="#DAE7FC"/>
<path d="M209.932 39.7453C154.628 56.0085 165.721 94.5999 159.535 137.362C151.815 190.732 118.449 163.366 80.1142 192.188C13.8479 242.011 61.9841 351.993 144.279 335.29C187.977 326.421 196.907 294.204 214.73 259.78C237.784 215.25 276.016 227.391 310.31 198.319C379.86 139.363 288.387 16.6739 209.932 39.7453Z" fill="url(#paint0_linear)"/>
<path opacity="0.1" d="M187.561 286.25C186.455 285.245 184.743 285.328 183.74 286.436L154.147 319.061C153.144 320.167 153.227 321.878 154.333 322.882C154.852 323.352 155.502 323.583 156.15 323.583C156.886 323.583 157.621 323.284 158.155 322.696L187.747 290.071C188.751 288.963 188.668 287.253 187.561 286.25Z" fill="#2626BC"/>
<path opacity="0.1" d="M156.864 240.55C155.758 239.546 154.047 239.63 153.043 240.737L102.853 296.069C101.849 297.176 101.933 298.887 103.039 299.89C103.557 300.36 104.208 300.592 104.856 300.592C105.592 300.592 106.326 300.293 106.86 299.704L157.05 244.372C158.054 243.265 157.971 241.553 156.864 240.55Z" fill="#2626BC"/>
<path opacity="0.1" d="M148.167 264.407L142.375 270.793C141.371 271.9 141.454 273.611 142.561 274.614C143.079 275.085 143.729 275.316 144.378 275.316C145.114 275.316 145.848 275.017 146.382 274.428L152.175 268.042C153.178 266.935 153.095 265.224 151.989 264.22C150.882 263.216 149.171 263.3 148.167 264.407Z" fill="#2626BC"/>
<path opacity="0.1" d="M109.513 224.593C110.25 224.593 110.984 224.294 111.518 223.705L117.31 217.319C118.314 216.213 118.231 214.502 117.124 213.498C116.018 212.493 114.307 212.577 113.303 213.684L107.51 220.07C106.507 221.177 106.59 222.887 107.697 223.892C108.215 224.362 108.865 224.593 109.513 224.593Z" fill="#2626BC"/>
<path opacity="0.1" d="M301.824 129.275L200.042 154.356V137.491C200.042 118.816 185.186 103.25 166.513 103.008C147.539 102.762 132.081 118.068 132.081 136.985C132.081 149.815 139.195 160.981 149.69 166.763L118.387 174.477C116.101 175.04 115.576 178.053 117.537 179.357L147.424 199.218L120.465 228.939C119.462 230.046 119.545 231.756 120.651 232.76C121.17 233.23 121.82 233.462 122.468 233.462C123.204 233.462 123.939 233.162 124.473 232.574L151.981 202.247L166.061 211.604L166.148 211.553L166.061 211.965L174.321 269.365C174.647 271.637 177.478 272.495 179.011 270.787L200.396 246.965L220.096 269.837L179.265 314.851C178.261 315.958 178.345 317.669 179.451 318.673C179.969 319.143 180.62 319.374 181.268 319.374C182.004 319.374 182.738 319.075 183.272 318.487L223.653 273.968L232.261 283.963C233.551 285.46 235.959 285.114 236.775 283.315L304.934 133.02C305.868 130.962 304.017 128.735 301.824 129.275Z" fill="#2626BC"/>
<path d="M307.239 110.087L169.492 177.886L166.062 194.111L175.145 257.241L307.239 110.087Z" fill="#4369FD"/>
<path d="M187.417 214.04L175.145 257.241L200.396 229.111L187.417 214.04Z" fill="#6583FE"/>
<path d="M307.241 110.086L235.026 269.318L187.417 214.042L307.241 110.086Z" fill="#FF7EB8"/>
<path d="M225.223 226.534C224.098 227.514 222.388 227.4 221.403 226.275L200.677 202.54L204.762 198.997L225.477 222.715C226.462 223.84 226.348 225.55 225.223 226.534Z" fill="white"/>
<path d="M233.646 217.516C232.521 218.5 230.812 218.381 229.827 217.256L209.95 194.495L214.035 190.946L233.901 213.696C234.885 214.821 234.772 216.531 233.646 217.516Z" fill="white"/>
<path d="M242.07 208.497C240.945 209.482 239.235 209.368 238.25 208.243L219.223 186.45L223.308 182.901L242.33 204.683C243.309 205.808 243.195 207.518 242.07 208.497Z" fill="white"/>
<path d="M250.494 199.484C249.368 200.463 247.659 200.349 246.674 199.224L228.496 178.406L232.581 174.862L250.754 195.664C251.733 196.789 251.619 198.499 250.494 199.484Z" fill="white"/>
<path d="M258.917 190.465C257.792 191.449 256.082 191.33 255.103 190.205L237.769 170.361L241.854 166.812L259.177 186.645C260.156 187.771 260.043 189.48 258.917 190.465Z" fill="white"/>
<path d="M263.916 162.889C262.791 163.874 261.081 163.755 260.097 162.63L254.313 156.008L258.398 152.458L264.176 159.075C265.155 160.2 265.042 161.905 263.916 162.889Z" fill="white"/>
<path d="M166.062 193.75L307.239 110.087L112.411 158.096L166.062 193.75Z" fill="#FF7EB8"/>
<path d="M200.044 136.504V158.859C200.044 161.212 198.134 163.122 195.781 163.122H166.063C155.735 163.122 146.478 158.512 140.251 151.236L200.044 136.504Z" fill="#FF5BA8"/>
<path d="M195.782 153.111H166.062C147.295 153.111 132.082 137.898 132.082 119.131C132.082 100.364 147.295 85.1506 166.062 85.1506C184.829 85.1506 200.042 100.364 200.042 119.131V148.85C200.042 151.204 198.134 153.111 195.782 153.111Z" fill="#02FFB3"/>
<path d="M181.606 124.178C184.394 124.178 186.654 121.919 186.654 119.131C186.654 116.343 184.394 114.083 181.606 114.083C178.819 114.083 176.559 116.343 176.559 119.131C176.559 121.919 178.819 124.178 181.606 124.178Z" fill="white"/>
<path d="M166.062 124.178C168.85 124.178 171.11 121.919 171.11 119.131C171.11 116.343 168.85 114.083 166.062 114.083C163.274 114.083 161.014 116.343 161.014 119.131C161.014 121.919 163.274 124.178 166.062 124.178Z" fill="white"/>
<path d="M150.518 124.178C153.306 124.178 155.566 121.919 155.566 119.131C155.566 116.343 153.306 114.083 150.518 114.083C147.73 114.083 145.47 116.343 145.47 119.131C145.47 121.919 147.73 124.178 150.518 124.178Z" fill="white"/>
<path d="M228.496 105.408C227.002 105.408 225.791 104.197 225.791 102.703C225.791 100.913 224.335 99.4567 222.545 99.4567C221.051 99.4567 219.84 98.2459 219.84 96.7517C219.84 95.2574 221.051 94.0466 222.545 94.0466C224.335 94.0466 225.791 92.5907 225.791 90.8005C225.791 89.3062 227.002 88.0954 228.496 88.0954C229.99 88.0954 231.201 89.3062 231.201 90.8005C231.201 92.5907 232.657 94.0466 234.447 94.0466C235.941 94.0466 237.152 95.2574 237.152 96.7517C237.152 98.2459 235.941 99.4567 234.447 99.4567C232.657 99.4567 231.201 100.913 231.201 102.703C231.201 104.197 229.99 105.408 228.496 105.408Z" fill="#6583FE"/>
<path d="M282.647 258.073C281.153 258.073 279.942 256.862 279.942 255.368C279.942 253.578 278.485 252.122 276.696 252.122C275.202 252.122 273.99 250.911 273.99 249.417C273.99 247.922 275.202 246.712 276.696 246.712C278.486 246.712 279.942 245.256 279.942 243.465C279.942 241.971 281.153 240.76 282.647 240.76C284.14 240.76 285.352 241.971 285.352 243.465C285.352 245.256 286.808 246.712 288.598 246.712C290.092 246.712 291.303 247.922 291.303 249.417C291.303 250.911 290.092 252.122 288.598 252.122C286.808 252.122 285.352 253.578 285.352 255.368C285.352 256.862 284.14 258.073 282.647 258.073Z" fill="#01ECA5"/>
<path d="M267.331 277.973C265.837 277.973 264.625 276.762 264.625 275.268C264.625 273.478 263.17 272.022 261.379 272.022C259.886 272.022 258.674 270.811 258.674 269.317C258.674 267.823 259.886 266.612 261.379 266.612C263.17 266.612 264.625 265.156 264.625 263.366C264.625 261.871 265.837 260.661 267.331 260.661C268.824 260.661 270.036 261.871 270.036 263.366C270.036 265.156 271.492 266.612 273.282 266.612C274.775 266.612 275.987 267.823 275.987 269.317C275.987 270.811 274.775 272.022 273.282 272.022C271.492 272.022 270.036 273.478 270.036 275.268C270.036 276.762 268.824 277.973 267.331 277.973Z" fill="#FF7EB8"/>
<path d="M104.857 246.729C104.14 246.729 103.451 246.445 102.944 245.937L96.825 239.817C96.3175 239.31 96.033 238.622 96.033 237.905C96.033 237.187 96.3181 236.499 96.825 235.992L102.944 229.873C104.001 228.817 105.713 228.817 106.769 229.873L112.889 235.992C113.396 236.499 113.681 237.187 113.681 237.905C113.681 238.622 113.396 239.31 112.889 239.817L106.769 245.937C106.262 246.445 105.574 246.729 104.857 246.729ZM102.564 237.905L104.857 240.199L107.15 237.905L104.857 235.613L102.564 237.905Z" fill="#01ECA5"/>
<path d="M196.447 86.6357C195.754 86.6357 195.062 86.3717 194.533 85.8431L188.415 79.7242C187.907 79.2168 187.623 78.5291 187.623 77.8118C187.623 77.0944 187.908 76.4062 188.415 75.8993L194.533 69.7798C195.041 69.2724 195.729 68.9872 196.447 68.9872C197.164 68.9872 197.852 69.2718 198.36 69.7798L204.479 75.8993C204.986 76.4067 205.271 77.0944 205.271 77.8118C205.271 78.5291 204.986 79.2173 204.478 79.7248L198.359 85.8437C197.831 86.3717 197.138 86.6357 196.447 86.6357ZM194.153 77.8123L196.447 80.1051L198.74 77.8123L196.447 75.5189L194.153 77.8123Z" fill="#FF7EB8"/>
<path d="M309.935 109.936C309.93 109.851 309.918 109.767 309.905 109.683C309.895 109.614 309.886 109.544 309.87 109.475C309.849 109.382 309.818 109.292 309.786 109.201C309.77 109.155 309.763 109.108 309.744 109.062C309.739 109.05 309.731 109.04 309.726 109.028C309.684 108.929 309.631 108.836 309.578 108.743C309.552 108.698 309.532 108.651 309.503 108.608C309.444 108.518 309.374 108.434 309.303 108.35C309.272 108.313 309.245 108.271 309.212 108.236C309.151 108.171 309.08 108.115 309.012 108.056C308.961 108.011 308.914 107.961 308.86 107.921C308.859 107.92 308.857 107.919 308.856 107.918C308.783 107.863 308.704 107.822 308.628 107.776C308.572 107.743 308.52 107.703 308.461 107.673C308.322 107.602 308.177 107.544 308.03 107.499C307.992 107.488 307.952 107.484 307.913 107.473C307.802 107.445 307.692 107.417 307.579 107.403C307.518 107.395 307.457 107.398 307.396 107.394C307.301 107.389 307.206 107.381 307.111 107.385C307.053 107.388 306.995 107.4 306.936 107.406C306.835 107.418 306.735 107.43 306.637 107.452C306.621 107.455 306.607 107.455 306.592 107.459L202.746 133.049V119.13C202.746 98.9016 186.29 82.4445 166.061 82.4445C145.833 82.4445 129.376 98.9016 129.376 119.13C129.376 130.688 134.755 141.009 143.135 147.738L111.763 155.469C110.721 155.726 109.93 156.573 109.746 157.631C109.562 158.688 110.019 159.754 110.913 160.348L148.341 185.221L120.465 215.953C119.461 217.06 119.545 218.77 120.651 219.774C121.169 220.244 121.82 220.475 122.468 220.475C123.204 220.475 123.938 220.176 124.472 219.588L152.898 188.25L163.498 195.294L172.466 257.625C172.471 257.661 172.484 257.694 172.491 257.729C172.507 257.82 172.528 257.909 172.554 257.997C172.574 258.065 172.594 258.131 172.619 258.196C172.649 258.275 172.685 258.351 172.722 258.427C172.754 258.493 172.785 258.557 172.822 258.619C172.864 258.691 172.913 258.758 172.962 258.825C173.003 258.883 173.044 258.941 173.09 258.995C173.144 259.059 173.206 259.118 173.267 259.177C173.317 259.225 173.366 259.276 173.42 259.32C173.482 259.372 173.55 259.416 173.617 259.462C173.68 259.506 173.742 259.551 173.809 259.589C173.823 259.597 173.835 259.608 173.85 259.616C173.956 259.674 174.065 259.723 174.175 259.765C174.2 259.774 174.225 259.78 174.249 259.789C174.361 259.828 174.473 259.859 174.587 259.883C174.629 259.892 174.671 259.9 174.715 259.907C174.848 259.929 174.982 259.942 175.116 259.944C175.124 259.944 175.131 259.946 175.139 259.946C175.267 259.946 175.397 259.936 175.527 259.918C175.559 259.913 175.587 259.9 175.619 259.895C175.703 259.88 175.784 259.857 175.866 259.833C175.966 259.806 176.063 259.777 176.157 259.739C176.23 259.709 176.3 259.673 176.37 259.637C176.466 259.588 176.559 259.536 176.647 259.476C176.711 259.434 176.771 259.388 176.831 259.339C176.919 259.268 177.001 259.193 177.079 259.112C177.11 259.08 177.146 259.057 177.175 259.023L200.088 232.899L220.414 256.498L179.262 301.866C178.258 302.973 178.342 304.684 179.448 305.687C179.966 306.157 180.617 306.389 181.265 306.389C182.001 306.389 182.735 306.09 183.269 305.501L223.971 260.629L232.974 271.082C233.492 271.683 234.243 272.021 235.023 272.021C235.151 272.021 235.28 272.012 235.408 271.994C236.322 271.863 237.106 271.274 237.487 270.433L247.597 248.141C248.214 246.78 247.611 245.177 246.251 244.56C244.889 243.943 243.287 244.546 242.67 245.906L234.309 264.342L191.221 214.316L299.66 120.237L250.179 229.347C249.562 230.708 250.165 232.311 251.525 232.928C252.886 233.544 254.489 232.941 255.106 231.581L309.699 111.202C309.719 111.158 309.729 111.113 309.746 111.069C309.774 110.998 309.8 110.927 309.822 110.854C309.845 110.774 309.863 110.695 309.879 110.615C309.894 110.543 309.907 110.472 309.916 110.399C309.925 110.317 309.929 110.234 309.931 110.151C309.937 110.08 309.939 110.009 309.935 109.936ZM149.361 151.777C154.374 154.352 160.048 155.816 166.062 155.816H171.341C172.835 155.816 174.047 154.605 174.047 153.111C174.047 151.617 172.835 150.406 171.341 150.406H166.062C148.817 150.406 134.787 136.376 134.787 119.131C134.787 101.886 148.817 87.8557 166.062 87.8557C183.307 87.8557 197.337 101.886 197.337 119.131V148.851C197.337 149.708 196.639 150.406 195.782 150.406H189.553C188.059 150.406 186.848 151.617 186.848 153.111C186.848 154.605 188.059 155.816 189.553 155.816H195.782C199.623 155.816 202.747 152.692 202.747 148.851V138.622L290.109 117.094L166.144 190.557L119.034 159.25L149.361 151.777ZM196.526 228.761L181.028 246.431L188.646 219.613L196.526 228.761ZM185.674 211.971C185.673 211.972 185.672 211.973 185.671 211.975L185.644 211.997C185.603 212.033 185.573 212.076 185.535 212.114C185.45 212.197 185.364 212.279 185.289 212.374C185.234 212.444 185.193 212.521 185.145 212.595C185.098 212.669 185.047 212.739 185.006 212.818C184.951 212.927 184.913 213.04 184.873 213.154C184.856 213.205 184.83 213.249 184.815 213.301L184.807 213.332C184.807 213.333 184.806 213.334 184.806 213.335L176.014 244.283L168.95 195.184L282.779 127.726L185.674 211.971Z" fill="#2626BC"/>
<path d="M187.561 273.265C186.454 272.26 184.744 272.344 183.74 273.451L154.147 306.076C153.144 307.183 153.227 308.893 154.334 309.897C154.852 310.367 155.502 310.598 156.15 310.598C156.887 310.598 157.621 310.299 158.155 309.711L187.747 277.086C188.751 275.979 188.668 274.268 187.561 273.265Z" fill="#2626BC"/>
<path d="M156.865 227.567C155.758 226.562 154.047 226.646 153.043 227.753L102.853 283.085C101.85 284.192 101.933 285.903 103.039 286.906C103.558 287.376 104.208 287.608 104.856 287.608C105.592 287.608 106.327 287.309 106.861 286.72L157.051 231.388C158.054 230.28 157.971 228.57 156.865 227.567Z" fill="#2626BC"/>
<path d="M148.168 251.422L142.375 257.808C141.371 258.915 141.455 260.625 142.561 261.629C143.079 262.1 143.73 262.331 144.378 262.331C145.114 262.331 145.848 262.032 146.382 261.443L152.175 255.057C153.179 253.951 153.095 252.24 151.989 251.236C150.882 250.231 149.171 250.315 148.168 251.422Z" fill="#2626BC"/>
<path d="M111.519 210.722L117.311 204.335C118.315 203.228 118.232 201.517 117.125 200.514C116.018 199.509 114.308 199.593 113.304 200.7L107.511 207.086C106.508 208.193 106.591 209.904 107.698 210.908C108.216 211.378 108.866 211.609 109.514 211.609C110.251 211.609 110.985 211.31 111.519 210.722Z" fill="#2626BC"/>
<defs>
<linearGradient id="paint0_linear" x1="48.9998" y1="186.946" x2="335" y2="186.946" gradientUnits="userSpaceOnUse">
<stop offset="0.0485" stop-color="#FFDBED"/>
<stop offset="0.9993" stop-color="#D2DEFF"/>
</linearGradient>
</defs>
</svg>
