<svg width="357" height="375" viewBox="0 0 357 375" fill="none" xmlns="http://www.w3.org/2000/svg">
<path d="M279.261 91.7747C233.247 66.3346 215.259 100.283 183.487 125.656C143.833 157.324 133.118 147.039 89.8107 141.5C38.2314 134.903 -0.931025 220.891 44.9957 251.962C69.5092 268.546 107.852 273.246 136.614 267.586C176.732 273 204.432 274.5 240.46 267.586C322.168 251.907 344.537 127.865 279.261 91.7747Z" fill="url(#paint0_linear)"/>
<g opacity="0.1">
<path opacity="0.1" d="M158.991 185.102H121.229C117.385 185.102 114.269 188.219 114.269 192.062V244.474C114.269 248.319 117.385 251.435 121.229 251.435H158.991C162.835 251.435 165.951 248.318 165.951 244.474V192.062C165.952 188.219 162.835 185.102 158.991 185.102Z" fill="#0000CC"/>
<path opacity="0.1" d="M235.78 154.53H200.493V95.8976C200.493 84.0678 190.779 74.4645 178.909 74.6459C167.246 74.8241 157.984 84.557 157.984 96.2204V137.98C157.984 139.071 158.869 139.956 159.96 139.956H166.893C167.984 139.956 168.868 139.071 168.868 137.98V95.8976C168.868 90.075 173.691 85.3579 179.553 85.5317C185.193 85.6988 189.609 90.4748 189.609 96.118V154.53H186.205C184.023 154.53 182.254 156.299 182.254 158.481V247.484C182.254 249.666 184.023 251.435 186.205 251.435H235.78C237.962 251.435 239.731 249.666 239.731 247.484V158.481C239.731 156.299 237.962 154.53 235.78 154.53Z" fill="#0000CC"/>
</g>
<path d="M158.991 240.767H121.229C117.385 240.767 114.269 237.651 114.269 233.807V181.395C114.269 177.55 117.385 174.434 121.229 174.434H158.991C162.835 174.434 165.951 177.551 165.951 181.395V233.806C165.952 237.651 162.835 240.767 158.991 240.767Z" fill="white"/>
<path d="M147.535 174.434V176.51C147.535 180.61 144.211 183.934 140.11 183.934C136.01 183.934 132.685 180.61 132.685 176.51V174.434H147.535Z" fill="#FFAB66"/>
<path d="M146.555 207.724H133.665C132.574 207.724 131.69 206.84 131.69 205.749V192.859C131.69 191.768 132.574 190.883 133.665 190.883H146.555C147.646 190.883 148.531 191.768 148.531 192.859V205.749C148.53 206.84 147.646 207.724 146.555 207.724Z" fill="#8383FF"/>
<path d="M146.555 229.06H133.665C132.574 229.06 131.69 228.175 131.69 227.084V214.194C131.69 213.103 132.574 212.219 133.665 212.219H146.555C147.646 212.219 148.531 213.103 148.531 214.194V227.084C148.53 228.175 147.646 229.06 146.555 229.06Z" fill="#FF6C6C"/>
<path d="M189.609 149.438V85.4503C189.609 79.8071 185.193 75.0311 179.553 74.864C173.692 74.6902 168.868 79.4073 168.868 85.2299V127.313C168.868 128.403 167.984 129.288 166.893 129.288H159.96C158.869 129.288 157.984 128.403 157.984 127.313V85.5527C157.984 73.8889 167.246 64.156 178.909 63.9782C190.779 63.7968 200.493 73.4002 200.493 85.2299V149.438H189.609Z" fill="#FFAB66"/>
<path d="M235.78 240.767H186.205C184.023 240.767 182.254 238.999 182.254 236.816V147.813C182.254 145.631 184.023 143.862 186.205 143.862H235.78C237.962 143.862 239.731 145.631 239.731 147.813V236.816C239.731 238.998 237.962 240.767 235.78 240.767Z" fill="#B3B3FF"/>
<path d="M158.991 172.459H121.229C116.302 172.459 112.293 176.467 112.293 181.395V233.807C112.293 238.734 116.302 242.743 121.229 242.743H158.991C163.919 242.743 167.927 238.734 167.927 233.807V216.773C167.927 215.682 167.043 214.797 165.952 214.797C164.86 214.797 163.976 215.682 163.976 216.773V233.806C163.976 236.555 161.74 238.791 158.991 238.791H121.229C118.481 238.791 116.244 236.555 116.244 233.806V181.395C116.244 178.646 118.481 176.409 121.229 176.409H158.991C161.74 176.409 163.976 178.646 163.976 181.395V203.339C163.976 204.43 164.86 205.315 165.952 205.315C167.043 205.315 167.927 204.43 167.927 203.339V181.395C167.927 176.467 163.919 172.459 158.991 172.459Z" fill="#0000CC"/>
<path d="M235.78 141.887H191.585V85.4503C191.585 78.7198 186.213 73.0848 179.611 72.8893C176.25 72.7932 173.061 74.0268 170.644 76.3737C168.225 78.7217 166.893 81.8667 166.893 85.2298V127.312H159.96V85.5526C159.96 74.9055 168.474 66.1129 178.939 65.9533C184.148 65.8746 189.046 67.8434 192.758 71.4997C196.472 75.1571 198.518 80.0335 198.518 85.2298V130.428C198.518 131.519 199.402 132.404 200.493 132.404C201.585 132.404 202.469 131.519 202.469 130.428V85.2298C202.469 78.9667 200.005 73.0908 195.531 68.6846C191.059 64.2804 185.156 61.9102 178.879 62.0026C166.268 62.1951 156.009 72.7597 156.009 85.5526V127.312C156.009 129.491 157.782 131.263 159.96 131.263H166.893C169.072 131.263 170.844 129.491 170.844 127.312V85.2298C170.844 82.9446 171.751 80.8059 173.396 79.2085C175.041 77.6119 177.218 76.7676 179.494 76.8383C183.982 76.971 187.634 80.8343 187.634 85.4499V141.886H186.206C182.938 141.886 180.279 144.545 180.279 147.813V236.816C180.279 240.084 182.938 242.742 186.206 242.742H235.781C239.048 242.742 241.707 240.084 241.707 236.816V147.813C241.706 144.545 239.048 141.887 235.78 141.887ZM237.755 236.816C237.755 237.905 236.869 238.791 235.78 238.791H186.205C185.116 238.791 184.23 237.905 184.23 236.816V147.813C184.23 146.724 185.116 145.838 186.205 145.838H235.78C236.87 145.838 237.756 146.724 237.756 147.813V236.816H237.755Z" fill="#0000CC"/>
<path d="M209.647 161.924V222.102C209.647 223.192 208.762 224.077 207.672 224.077H197.138C196.048 224.077 195.163 223.192 195.163 222.102V161.924C195.163 160.833 196.048 159.948 197.138 159.948H207.672C208.762 159.948 209.647 160.833 209.647 161.924Z" fill="#EBEBFF"/>
<path d="M209.647 169.008V177.143L195.163 191.627V183.492L209.647 169.008Z" fill="white"/>
<path d="M209.647 184.069V202.536L195.163 217.021V198.554L209.647 184.069Z" fill="white"/>
<path d="M222.08 223.151C223.782 223.151 225.162 221.771 225.162 220.068C225.162 218.366 223.782 216.986 222.08 216.986C220.378 216.986 218.998 218.366 218.998 220.068C218.998 221.771 220.378 223.151 222.08 223.151Z" fill="#FF6C6C"/>
<path d="M222.081 213.109C223.783 213.109 225.163 211.729 225.163 210.027C225.163 208.324 223.783 206.944 222.081 206.944C220.379 206.944 218.999 208.324 218.999 210.027C218.999 211.729 220.379 213.109 222.081 213.109Z" fill="#FF6C6C"/>
<g opacity="0.1">
<g opacity="0.1">
<path opacity="0.1" d="M148.613 170.042C148.264 170.042 147.911 169.949 147.591 169.755C145.337 168.388 142.751 167.666 140.109 167.666C137.468 167.666 134.882 168.388 132.629 169.755C131.696 170.321 130.481 170.023 129.915 169.09C129.349 168.157 129.647 166.942 130.58 166.377C133.45 164.635 136.746 163.715 140.109 163.715C143.473 163.715 146.768 164.635 149.639 166.377C150.572 166.942 150.87 168.157 150.304 169.09C149.932 169.703 149.281 170.042 148.613 170.042Z" fill="#0000CC"/>
</g>
<g opacity="0.1">
<path opacity="0.1" d="M143.726 175.693C143.377 175.693 143.024 175.6 142.704 175.406C141.142 174.459 139.079 174.458 137.516 175.406C136.583 175.972 135.368 175.674 134.802 174.741C134.237 173.808 134.534 172.593 135.467 172.027C136.866 171.179 138.472 170.73 140.11 170.73C141.749 170.73 143.355 171.179 144.753 172.027C145.686 172.593 145.983 173.808 145.417 174.741C145.046 175.354 144.394 175.693 143.726 175.693Z" fill="#0000CC"/>
</g>
</g>
<path d="M134.516 122.004C131.681 122.004 129.375 119.698 129.375 116.863C129.375 114.028 131.681 111.722 134.516 111.722C137.351 111.722 139.657 114.028 139.657 116.863C139.657 119.698 137.351 122.004 134.516 122.004ZM134.516 115.673C133.86 115.673 133.326 116.207 133.326 116.863C133.326 117.519 133.86 118.053 134.516 118.053C135.172 118.053 135.706 117.519 135.706 116.863C135.706 116.207 135.172 115.673 134.516 115.673Z" fill="#6C6CFF"/>
<path d="M100.141 170.407C97.3062 170.407 95 168.1 95 165.266C95 162.431 97.3062 160.124 100.141 160.124C102.976 160.124 105.282 162.431 105.282 165.266C105.282 168.1 102.976 170.407 100.141 170.407ZM100.141 164.076C99.4848 164.076 98.951 164.61 98.951 165.266C98.951 165.922 99.4848 166.456 100.141 166.456C100.797 166.456 101.331 165.922 101.331 165.266C101.331 164.61 100.797 164.076 100.141 164.076Z" fill="#FF9D33"/>
<path d="M222.081 133.864C219.247 133.864 216.94 131.557 216.94 128.723C216.94 125.888 219.247 123.582 222.081 123.582C224.916 123.582 227.223 125.888 227.223 128.723C227.223 131.557 224.916 133.864 222.081 133.864ZM222.081 127.533C221.425 127.533 220.891 128.066 220.891 128.723C220.891 129.379 221.425 129.913 222.081 129.913C222.738 129.913 223.272 129.379 223.272 128.723C223.272 128.066 222.738 127.533 222.081 127.533Z" fill="#FF6C6C"/>
<path d="M229.509 99.3555C229.004 99.3555 228.498 99.1627 228.112 98.7771L223.766 94.431C222.995 93.6593 222.995 92.4085 223.766 91.6372L228.112 87.2911C228.883 86.5199 230.135 86.5199 230.906 87.2911L235.252 91.6372C236.023 92.4089 236.023 93.6597 235.252 94.431L230.906 98.7771C230.52 99.1627 230.015 99.3555 229.509 99.3555ZM227.957 93.0339L229.509 94.5863L231.062 93.0339L229.509 91.4815L227.957 93.0339Z" fill="#FF9D33"/>
<path d="M252.678 213.922C252.173 213.922 251.667 213.729 251.282 213.344L246.936 208.998C246.164 208.226 246.164 206.975 246.936 206.204L251.282 201.858C252.053 201.087 253.304 201.087 254.075 201.858L258.421 206.204C259.193 206.976 259.193 208.226 258.421 208.998L254.075 213.344C253.69 213.729 253.184 213.922 252.678 213.922ZM251.126 207.601L252.678 209.153L254.231 207.601L252.678 206.048L251.126 207.601Z" fill="#6C6CFF"/>
<path d="M90.4339 71L97.3936 81.627H83.4741L90.4339 71Z" fill="#DAE7FC"/>
<path d="M204.817 102.601L199.279 113.859L190.989 104.002L204.817 102.601Z" fill="#DAE7FC"/>
<path d="M45.2165 136.031L59.1302 136.383L51.8274 146.83L45.2165 136.031Z" fill="#DAE7FC"/>
<path d="M69.9627 151.538L82.0126 157.681L69.9533 163.809L69.9627 151.538Z" fill="#DAE7FC"/>
<path d="M335.482 85.9959L324.677 93.7317L322.48 81.6145L335.482 85.9959Z" fill="#DAE7FC"/>
<path d="M338.383 226.996L327.577 234.732L325.381 222.614L338.383 226.996Z" fill="#DAE7FC"/>
<defs>
<linearGradient id="paint0_linear" x1="80.411" y1="86.5804" x2="271.966" y2="267.322" gradientUnits="userSpaceOnUse">
<stop offset="0.0485" stop-color="#FFDBED"/>
<stop offset="0.9993" stop-color="#D2DEFF"/>
</linearGradient>
</defs>
</svg>
