<svg width="340" height="363" viewBox="0 0 340 363" fill="none" xmlns="http://www.w3.org/2000/svg">
<path d="M181.932 27.7453C126.628 44.0085 137.721 82.5999 131.535 125.362C123.815 178.732 90.4489 151.366 52.1142 180.188C-14.1521 230.011 33.9841 339.993 116.279 323.29C159.977 314.421 168.907 282.204 186.73 247.78C209.784 203.25 248.016 215.391 282.31 186.319C351.86 127.363 260.387 4.67393 181.932 27.7453Z" fill="url(#paint0_linear)"/>
<path d="M62.7826 281.413L64.0111 148.721L259.456 146.868L265.19 282.98L62.7826 281.413Z" fill="#7882E1" stroke="#0000CC" stroke-width="4"/>
<path d="M62.0293 146.74L156.218 67.5078C160.154 64.1641 165.918 64.1641 169.855 67.5078L261.372 144.705" fill="#57548D"/>
<g opacity="0.3">
<g opacity="0.3">
<g opacity="0.3">
<path opacity="0.3" d="M62.0293 146.74L156.218 67.5078C160.154 64.1641 165.918 64.1641 169.855 67.5078L261.372 144.705" fill="black"/>
</g>
</g>
</g>
<mask id="path-5-inside-1" fill="white">
<path d="M60.7639 283.397C60.4827 283.107 76.5089 265.079 96.3308 243.127C116.293 221.029 132.601 203.438 132.741 203.729C133.022 204.02 117.137 222.047 97.1743 243.999C77.3524 265.952 61.0451 283.688 60.7639 283.397Z"/>
</mask>
<path d="M60.7639 283.397C60.4827 283.107 76.5089 265.079 96.3308 243.127C116.293 221.029 132.601 203.438 132.741 203.729C133.022 204.02 117.137 222.047 97.1743 243.999C77.3524 265.952 61.0451 283.688 60.7639 283.397Z" fill="#0000CC"/>
<path d="M96.3308 243.127L94.8467 241.786L94.8464 241.787L96.3308 243.127ZM132.741 203.729L130.941 204.6L131.08 204.889L131.303 205.119L132.741 203.729ZM97.1743 243.999L95.6946 242.654L95.6898 242.659L97.1743 243.999ZM62.2016 282.007C62.6527 282.473 62.7444 283.007 62.758 283.292C62.7715 283.574 62.7207 283.79 62.6945 283.888C62.641 284.088 62.5683 284.224 62.5566 284.246C62.5195 284.317 62.4997 284.34 62.5406 284.281C62.6087 284.183 62.7428 284.005 62.9614 283.732C63.3898 283.195 64.0526 282.402 64.9355 281.369C66.6966 279.308 69.2838 276.352 72.5064 272.711C78.9492 265.431 87.9061 255.441 97.8152 244.467L94.8464 241.787C84.9336 252.765 75.9665 262.765 69.511 270.06C66.2845 273.706 63.6789 276.683 61.8948 278.77C61.0051 279.811 60.3071 280.645 59.8355 281.236C59.6041 281.526 59.4033 281.787 59.2578 281.996C59.192 282.09 59.0957 282.233 59.0132 282.391C58.9788 282.456 58.8913 282.627 58.8307 282.853C58.801 282.964 58.7487 283.192 58.7626 283.483C58.7766 283.776 58.8707 284.317 59.3262 284.788L62.2016 282.007ZM97.8149 244.468C107.792 233.423 116.854 223.507 123.437 216.39C126.73 212.831 129.398 209.977 131.248 208.034C132.176 207.06 132.887 206.326 133.366 205.849C133.61 205.606 133.772 205.452 133.863 205.371C133.918 205.321 133.902 205.339 133.844 205.381C133.837 205.386 133.697 205.49 133.485 205.578C133.4 205.612 133.092 205.737 132.673 205.724C132.127 205.708 131.341 205.427 130.941 204.6L134.542 202.858C134.139 202.026 133.349 201.744 132.797 201.726C132.372 201.713 132.055 201.84 131.961 201.879C131.729 201.975 131.561 202.096 131.518 202.126C131.389 202.219 131.27 202.322 131.194 202.391C131.021 202.546 130.798 202.762 130.544 203.015C130.026 203.531 129.285 204.296 128.352 205.275C126.481 207.239 123.798 210.11 120.501 213.674C113.905 220.805 104.832 230.733 94.8467 241.786L97.8149 244.468ZM131.303 205.119C130.855 204.655 130.762 204.125 130.747 203.842C130.733 203.562 130.782 203.345 130.808 203.247C130.861 203.047 130.933 202.911 130.944 202.888C130.981 202.817 131.001 202.794 130.961 202.852C130.894 202.95 130.761 203.127 130.545 203.401C130.12 203.937 129.462 204.729 128.585 205.762C126.836 207.822 124.262 210.777 121.05 214.418C114.626 221.696 105.671 231.683 95.6946 242.654L98.6539 245.345C108.64 234.363 117.609 224.361 124.049 217.064C127.267 213.418 129.86 210.44 131.634 208.352C132.519 207.31 133.212 206.475 133.68 205.884C133.91 205.594 134.109 205.333 134.254 205.123C134.319 205.029 134.415 204.885 134.497 204.727C134.531 204.661 134.617 204.49 134.677 204.264C134.706 204.153 134.757 203.925 134.742 203.636C134.727 203.344 134.632 202.807 134.179 202.339L131.303 205.119ZM95.6898 242.659C85.7813 253.633 76.7543 263.549 70.1714 270.683C66.8787 274.252 64.204 277.117 62.3384 279.069C61.403 280.048 60.6845 280.783 60.1981 281.258C59.9496 281.501 59.7894 281.649 59.7027 281.723C59.649 281.769 59.6753 281.742 59.75 281.693C59.772 281.679 59.9171 281.583 60.1354 281.507C60.2417 281.471 60.4868 281.395 60.8108 281.401C61.162 281.408 61.7307 281.52 62.2016 282.007L59.3262 284.788C59.8015 285.279 60.3765 285.394 60.736 285.4C61.0683 285.407 61.3237 285.329 61.4421 285.288C61.6848 285.204 61.8619 285.091 61.9236 285.051C62.0778 284.951 62.214 284.838 62.3 284.765C62.4928 284.6 62.7311 284.376 62.9942 284.118C63.5308 283.594 64.2873 282.819 65.23 281.833C67.1205 279.855 69.8142 276.969 73.1112 273.396C79.7078 266.246 88.7454 256.318 98.6587 245.34L95.6898 242.659Z" fill="#0000CC" mask="url(#path-5-inside-1)"/>
<mask id="path-7-inside-2" fill="white">
<path d="M267.277 284.997C266.995 285.287 251.391 267.551 232.413 245.598C213.434 223.646 198.251 205.619 198.533 205.328C198.814 205.037 214.418 222.774 233.397 244.726C252.375 266.679 267.417 284.706 267.277 284.997Z"/>
</mask>
<path d="M267.277 284.997C266.995 285.287 251.391 267.551 232.413 245.598C213.434 223.646 198.251 205.619 198.533 205.328C198.814 205.037 214.418 222.774 233.397 244.726C252.375 266.679 267.417 284.706 267.277 284.997Z" fill="#0000CC"/>
<path d="M267.277 284.997L268.714 286.387L268.937 286.156L269.077 285.867L267.277 284.997ZM265.839 283.606C266.302 283.127 266.864 283.007 267.229 283C267.561 282.994 267.812 283.073 267.922 283.113C268.147 283.193 268.296 283.294 268.319 283.31C268.397 283.362 268.426 283.393 268.375 283.348C268.294 283.276 268.142 283.129 267.904 282.887C267.438 282.412 266.75 281.678 265.854 280.7C264.068 278.748 261.507 275.883 258.355 272.315C252.053 265.18 243.413 255.264 233.926 244.29L230.9 246.906C240.391 257.885 249.042 267.813 255.357 274.963C258.513 278.536 261.093 281.422 262.904 283.401C263.807 284.387 264.533 285.163 265.049 285.688C265.301 285.946 265.532 286.172 265.719 286.339C265.803 286.413 265.938 286.529 266.092 286.633C266.154 286.674 266.333 286.793 266.582 286.881C266.704 286.925 266.965 287.006 267.305 287C267.678 286.993 268.247 286.87 268.714 286.387L265.839 283.606ZM233.926 244.29C224.44 233.319 215.906 223.331 209.78 216.052C206.717 212.412 204.261 209.456 202.593 207.397C201.756 206.364 201.13 205.572 200.726 205.037C200.52 204.764 200.394 204.588 200.332 204.492C200.294 204.434 200.314 204.459 200.35 204.532C200.362 204.556 200.43 204.694 200.477 204.894C200.5 204.992 200.543 205.206 200.524 205.48C200.504 205.755 200.406 206.268 199.97 206.718L197.095 203.938C196.655 204.393 196.554 204.913 196.534 205.197C196.514 205.48 196.558 205.704 196.585 205.815C196.638 206.042 196.72 206.214 196.753 206.282C196.831 206.442 196.922 206.587 196.985 206.683C197.123 206.894 197.314 207.156 197.533 207.446C197.98 208.038 198.641 208.874 199.485 209.915C201.177 212.004 203.651 214.981 206.72 218.628C212.86 225.924 221.407 235.926 230.9 246.906L233.926 244.29ZM199.97 206.718C199.507 207.198 198.945 207.317 198.58 207.324C198.248 207.331 197.997 207.251 197.887 207.212C197.662 207.132 197.513 207.03 197.49 207.015C197.412 206.962 197.383 206.932 197.434 206.977C197.515 207.049 197.667 207.195 197.906 207.438C198.371 207.912 199.059 208.646 199.955 209.625C201.741 211.576 204.302 214.442 207.454 218.01C213.756 225.144 222.397 235.06 231.884 246.034L234.91 243.418C225.418 232.44 216.767 222.511 210.452 215.362C207.296 211.789 204.716 208.902 202.905 206.924C202.002 205.937 201.276 205.162 200.761 204.636C200.508 204.379 200.278 204.153 200.09 203.986C200.007 203.912 199.872 203.796 199.717 203.692C199.655 203.651 199.476 203.532 199.227 203.443C199.105 203.4 198.844 203.319 198.504 203.325C198.131 203.332 197.563 203.454 197.095 203.938L199.97 206.718ZM231.884 246.034C241.367 257.004 249.866 266.991 255.974 274.27C259.029 277.91 261.482 280.868 263.159 282.931C264 283.964 264.637 284.762 265.056 285.305C265.268 285.58 265.409 285.769 265.488 285.882C265.532 285.945 265.531 285.949 265.512 285.915C265.507 285.906 265.459 285.825 265.411 285.702C265.388 285.645 265.337 285.507 265.305 285.32C265.284 285.198 265.202 284.692 265.476 284.126L269.077 285.867C269.353 285.297 269.271 284.784 269.249 284.653C269.216 284.457 269.161 284.308 269.133 284.238C269.075 284.089 269.009 283.973 268.979 283.92C268.91 283.8 268.831 283.683 268.768 283.593C268.632 283.399 268.445 283.15 268.223 282.861C267.772 282.277 267.109 281.447 266.262 280.407C264.566 278.321 262.099 275.346 259.038 271.699C252.916 264.403 244.404 254.401 234.91 243.418L231.884 246.034Z" fill="#0000CC" mask="url(#path-7-inside-2)"/>
<g opacity="0.5">
<g opacity="0.5">
<g opacity="0.5">
<path opacity="0.5" d="M261.372 144.85L161.42 227.717L62.0293 146.74" fill="black"/>
</g>
</g>
</g>
<path d="M72.0104 154.3L71.5886 89.8964L246.19 87.4249L248.298 155.172L161.42 226.699L72.0104 154.3Z" fill="#E3F2F7"/>
<path d="M72.0101 154.3C72.0101 154.3 72.5724 154.736 73.697 155.608C74.8217 156.48 76.3681 157.789 78.4768 159.388C82.6942 162.732 88.7392 167.675 96.6117 173.926C112.216 186.429 134.568 204.456 161.7 226.408H161.279C186.302 205.764 215.965 181.34 248.157 154.881L248.017 155.172C247.595 142.233 247.173 128.713 246.752 114.902C246.47 105.597 246.189 96.4385 245.908 87.4249L246.33 87.861C176.04 88.8787 113.903 89.6056 71.7289 90.1871L72.0101 89.8963C72.0101 110.25 72.0101 126.241 72.0101 137.29C72.0101 142.815 72.0101 147.031 72.0101 149.938C72.0101 151.392 72.0101 152.41 72.0101 153.137C72.0101 154.009 72.0101 154.3 72.0101 154.3C72.0101 154.3 72.0101 154.009 72.0101 153.282C72.0101 152.555 72.0101 151.392 72.0101 150.084C72.0101 147.176 71.8695 142.96 71.8695 137.436C71.7289 126.387 71.5883 110.25 71.4478 90.0417V89.751H71.7289C113.903 89.1694 175.899 88.1518 246.33 87.1341H246.752V87.5703C247.033 96.5838 247.314 105.743 247.595 115.047C248.017 128.858 248.439 142.379 248.86 155.317V155.463L248.72 155.608C216.527 182.067 186.864 206.491 161.841 226.99L161.7 227.135L161.56 226.99C134.147 204.892 111.794 186.72 96.1899 174.071C88.458 167.82 82.413 162.877 78.1956 159.388C76.0869 157.643 74.5405 156.48 73.5565 155.608C72.5724 154.736 72.0101 154.3 72.0101 154.3Z" fill="#E3F2F7"/>
<path d="M218.636 119.99C218.636 120.135 191.926 120.572 159.03 120.862C126.134 121.153 99.4236 121.153 99.4236 121.008C99.4236 120.862 126.134 120.426 159.03 120.135C191.926 119.699 218.636 119.699 218.636 119.99Z" fill="#263238"/>
<path d="M218.776 138.163C218.776 138.308 192.066 138.744 159.17 139.035C126.275 139.326 99.5642 139.326 99.5642 139.18C99.5642 139.035 126.275 138.599 159.17 138.308C192.066 138.017 218.776 137.872 218.776 138.163Z" fill="#263238"/>
<path d="M218.776 159.097C218.776 159.243 192.066 159.679 159.17 159.97C126.275 160.26 99.5642 160.26 99.5642 160.115C99.5642 159.97 126.275 159.533 159.17 159.243C192.066 158.952 218.776 158.807 218.776 159.097Z" fill="#263238"/>
<path d="M218.776 180.032C218.776 180.177 193.331 180.614 161.841 180.904C130.351 181.195 104.906 181.195 104.906 181.05C104.906 180.904 130.351 180.468 161.841 180.177C193.331 179.887 218.776 179.887 218.776 180.032Z" fill="#263238"/>
<path d="M196.564 198.495C196.564 198.495 196.283 198.495 195.862 198.641C195.299 198.641 194.596 198.641 193.893 198.786C192.066 198.786 189.535 198.931 186.583 198.931C180.257 199.077 171.682 199.222 162.263 199.368C152.703 199.513 144.128 199.658 137.942 199.658C134.85 199.658 132.46 199.658 130.632 199.658C129.789 199.658 129.226 199.658 128.664 199.658C128.242 199.658 127.961 199.658 127.961 199.658C127.961 199.658 128.242 199.658 128.664 199.513C129.226 199.513 129.929 199.513 130.632 199.368C132.46 199.368 134.99 199.222 137.942 199.222C144.269 199.077 152.844 198.931 162.263 198.786C171.822 198.641 180.398 198.495 186.583 198.495C189.676 198.495 192.066 198.495 193.893 198.495C194.737 198.495 195.299 198.495 195.862 198.495C196.283 198.495 196.564 198.495 196.564 198.495Z" fill="#263238"/>
<path d="M174.072 216.232C174.072 216.377 168.449 216.668 161.42 216.668C154.391 216.668 148.767 216.522 148.767 216.377C148.767 216.232 154.391 215.941 161.42 215.941C168.308 215.796 174.072 216.086 174.072 216.232Z" fill="#263238"/>
<g filter="url(#filter0_d)">
<ellipse cx="272.535" cy="289" rx="32.8775" ry="34" fill="#FB7270"/>
</g>
<path d="M282.307 279.654C281.961 279.664 281.632 279.809 281.39 280.057L269 292.448L264.622 288.07C264.618 288.066 264.613 288.062 264.609 288.057C264.359 287.807 264.02 287.667 263.666 287.667C263.313 287.667 262.974 287.807 262.724 288.057C262.474 288.307 262.333 288.646 262.333 289C262.333 289.354 262.474 289.693 262.724 289.943L267.114 294.333L265 296.448L256.609 288.057C256.486 287.929 256.339 287.827 256.176 287.757C256.013 287.686 255.838 287.649 255.661 287.647C255.483 287.646 255.307 287.679 255.143 287.746C254.979 287.813 254.83 287.912 254.704 288.038C254.579 288.163 254.48 288.313 254.413 288.477C254.346 288.641 254.312 288.817 254.314 288.994C254.316 289.172 254.353 289.347 254.423 289.51C254.494 289.673 254.596 289.82 254.724 289.943L264.057 299.276C264.307 299.526 264.646 299.666 265 299.666C265.353 299.666 265.692 299.526 265.942 299.276L283.276 281.943C283.468 281.755 283.6 281.514 283.653 281.251C283.707 280.988 283.679 280.714 283.574 280.467C283.47 280.219 283.293 280.009 283.066 279.864C282.84 279.719 282.576 279.646 282.307 279.654ZM290.333 279.667C289.979 279.667 289.64 279.807 289.39 280.057L273 296.448L272.609 296.057L270.724 297.943L272.057 299.276C272.307 299.526 272.646 299.666 273 299.666C273.353 299.666 273.692 299.526 273.942 299.276L291.263 281.956C291.39 281.831 291.492 281.683 291.561 281.519C291.631 281.355 291.666 281.178 291.666 281C291.666 280.646 291.526 280.307 291.276 280.057C291.026 279.807 290.687 279.667 290.333 279.667Z" fill="white"/>
<path d="M79.4336 58L86.3934 68.627H72.4739L79.4336 58Z" fill="#DAE7FC"/>
<path d="M37.4795 80.528C42.594 75.5441 51.1765 77.5212 53.7617 84.2789L61.9333 105.639C64.7958 113.121 58.2852 120.698 50.5291 118.912L26.1915 113.305C18.4355 111.518 15.6506 101.8 21.3135 96.2812L37.4795 80.528Z" fill="#DAE7FC"/>
<path d="M46.0805 106.168C49.5845 106.168 51.5525 102.256 51.5525 98.536C51.5525 93.76 48.3125 90.496 42.7445 90.496C35.4725 90.496 30.3125 95.944 30.3125 102.88C30.3125 107.752 33.7445 110.872 39.0245 110.872C40.7525 110.872 42.4085 110.584 43.9205 109.936L43.5605 108.112C42.3365 108.712 40.8725 108.952 39.5765 108.952C35.1125 108.952 32.5445 106.792 32.5445 102.664C32.5445 96.832 36.6725 92.392 42.4085 92.392C46.9205 92.392 49.3445 94.6 49.3445 98.656C49.3445 100.96 48.4565 104.344 46.4885 104.344C45.2885 104.344 45.2165 103.504 45.4085 102.208L46.6085 95.344H44.2325L44.0165 96.544C43.4645 95.608 42.5045 95.128 41.0885 95.128C37.5605 95.128 35.1365 98.392 35.1365 102.016C35.1365 104.536 36.5765 106.168 39.0725 106.168C40.7285 106.168 42.3125 105.352 43.2965 104.104C43.5125 105.376 44.4245 106.168 46.0805 106.168ZM43.5365 99.832C43.5365 102.04 41.9765 104.056 39.9125 104.056C38.3525 104.056 37.6805 103.024 37.6805 101.608C37.6805 99.448 38.9525 97.216 41.1125 97.216C42.7205 97.216 43.5365 98.368 43.5365 99.832Z" fill="white"/>
<path d="M170.315 304.452C170.915 297.246 178.469 292.875 184.721 296.118L204.562 306.407C211.557 310.035 211.667 320.248 204.755 324.247L183.011 336.826C176.099 340.825 167.74 335.384 168.412 327.321L170.315 304.452Z" fill="#DAE7FC"/>
<path d="M190.856 322.224C194.36 322.224 196.328 318.312 196.328 314.592C196.328 309.816 193.088 306.552 187.52 306.552C180.248 306.552 175.088 312 175.088 318.936C175.088 323.808 178.52 326.928 183.8 326.928C185.528 326.928 187.184 326.64 188.696 325.992L188.336 324.168C187.112 324.768 185.648 325.008 184.352 325.008C179.888 325.008 177.32 322.848 177.32 318.72C177.32 312.888 181.448 308.448 187.184 308.448C191.696 308.448 194.12 310.656 194.12 314.712C194.12 317.016 193.232 320.4 191.264 320.4C190.064 320.4 189.992 319.56 190.184 318.264L191.384 311.4H189.008L188.792 312.6C188.24 311.664 187.28 311.184 185.864 311.184C182.336 311.184 179.912 314.448 179.912 318.072C179.912 320.592 181.352 322.224 183.848 322.224C185.504 322.224 187.088 321.408 188.072 320.16C188.288 321.432 189.2 322.224 190.856 322.224ZM188.312 315.888C188.312 318.096 186.752 320.112 184.688 320.112C183.128 320.112 182.456 319.08 182.456 317.664C182.456 315.504 183.728 313.272 185.888 313.272C187.496 313.272 188.312 314.424 188.312 315.888Z" fill="white"/>
<path d="M303.994 30.6146C310.91 30.2849 315.925 37.2217 313.663 43.9886L306.427 65.6312C303.838 73.3727 293.924 75.0342 289.212 68.5163L274.328 47.9283C269.616 41.4103 273.961 32.0465 281.874 31.6693L303.994 30.6146Z" fill="#DAE7FC"/>
<path d="M298.376 54.2242C301.88 54.2242 303.848 50.3122 303.848 46.5922C303.848 41.8162 300.608 38.5522 295.04 38.5522C287.768 38.5522 282.608 44.0002 282.608 50.9362C282.608 55.8082 286.04 58.9282 291.32 58.9282C293.048 58.9282 294.704 58.6402 296.216 57.9922L295.856 56.1682C294.632 56.7682 293.168 57.0082 291.872 57.0082C287.408 57.0082 284.84 54.8482 284.84 50.7202C284.84 44.8882 288.968 40.4482 294.704 40.4482C299.216 40.4482 301.64 42.6562 301.64 46.7122C301.64 49.0162 300.752 52.4002 298.784 52.4002C297.584 52.4002 297.512 51.5602 297.704 50.2642L298.904 43.4002H296.528L296.312 44.6002C295.76 43.6642 294.8 43.1842 293.384 43.1842C289.856 43.1842 287.432 46.4482 287.432 50.0722C287.432 52.5922 288.872 54.2242 291.368 54.2242C293.024 54.2242 294.608 53.4082 295.592 52.1602C295.808 53.4322 296.72 54.2242 298.376 54.2242ZM295.832 47.8882C295.832 50.0962 294.272 52.1122 292.208 52.1122C290.648 52.1122 289.976 51.0802 289.976 49.6642C289.976 47.5042 291.248 45.2722 293.408 45.2722C295.016 45.2722 295.832 46.4242 295.832 47.8882Z" fill="white"/>
<path d="M193.817 89.6012L188.279 100.859L179.989 91.0021L193.817 89.6012Z" fill="#DAE7FC"/>
<path d="M9.85861 180.031L23.7723 180.383L16.4695 190.83L9.85861 180.031Z" fill="#DAE7FC"/>
<path d="M327.383 213.996L316.577 221.732L314.381 209.614L327.383 213.996Z" fill="#DAE7FC"/>
<path d="M229.509 319.996L218.704 327.732L216.507 315.614L229.509 319.996Z" fill="#DAE7FC"/>
<defs>
<filter id="filter0_d" x="237.657" y="255" width="73.755" height="77" filterUnits="userSpaceOnUse" color-interpolation-filters="sRGB">
<feFlood flood-opacity="0" result="BackgroundImageFix"/>
<feColorMatrix in="SourceAlpha" type="matrix" values="0 0 0 0 0 0 0 0 0 0 0 0 0 0 0 0 0 0 127 0"/>
<feOffset dx="2" dy="5"/>
<feGaussianBlur stdDeviation="2"/>
<feColorMatrix type="matrix" values="0 0 0 0 0.984314 0 0 0 0 0.447059 0 0 0 0 0.439216 0 0 0 0.2 0"/>
<feBlend mode="normal" in2="BackgroundImageFix" result="effect1_dropShadow"/>
<feBlend mode="normal" in="SourceGraphic" in2="effect1_dropShadow" result="shape"/>
</filter>
<linearGradient id="paint0_linear" x1="20.9998" y1="174.946" x2="307" y2="174.946" gradientUnits="userSpaceOnUse">
<stop offset="0.0485" stop-color="#FFDBED"/>
<stop offset="0.9993" stop-color="#D2DEFF"/>
</linearGradient>
</defs>
</svg>
