<svg width="340" height="361" viewBox="0 0 340 361" fill="none" xmlns="http://www.w3.org/2000/svg">
<path d="M181.932 25.7453C126.628 42.0085 137.721 80.5999 131.535 123.362C123.815 176.732 90.4489 149.366 52.1142 178.188C-14.1521 228.011 33.9841 337.993 116.279 321.29C159.977 312.421 168.907 280.204 186.73 245.78C209.784 201.25 248.016 213.391 282.31 184.319C351.86 125.363 260.387 2.67393 181.932 25.7453Z" fill="url(#paint0_linear)"/>
<path d="M62.7826 279.413L64.0111 146.721L259.456 144.868L265.19 280.98L62.7826 279.413Z" fill="#7882E1" stroke="#0000CC" stroke-width="4"/>
<path d="M62.0293 144.74L156.218 65.5078C160.154 62.1641 165.918 62.1641 169.855 65.5078L261.372 142.705" fill="#57548D"/>
<g opacity="0.3">
<g opacity="0.3">
<g opacity="0.3">
<path opacity="0.3" d="M62.0293 144.74L156.218 65.5078C160.154 62.1641 165.918 62.1641 169.855 65.5078L261.372 142.705" fill="black"/>
</g>
</g>
</g>
<mask id="path-5-inside-1" fill="white">
<path d="M60.7639 281.397C60.4827 281.107 76.5089 263.079 96.3308 241.127C116.293 219.029 132.601 201.438 132.741 201.729C133.022 202.02 117.137 220.047 97.1743 241.999C77.3524 263.952 61.0451 281.688 60.7639 281.397Z"/>
</mask>
<path d="M60.7639 281.397C60.4827 281.107 76.5089 263.079 96.3308 241.127C116.293 219.029 132.601 201.438 132.741 201.729C133.022 202.02 117.137 220.047 97.1743 241.999C77.3524 263.952 61.0451 281.688 60.7639 281.397Z" fill="#57548D"/>
<path d="M96.3308 241.127L94.8467 239.786L94.8464 239.787L96.3308 241.127ZM132.741 201.729L130.941 202.6L131.08 202.889L131.303 203.119L132.741 201.729ZM97.1743 241.999L95.6946 240.654L95.6898 240.659L97.1743 241.999ZM62.2016 280.007C62.6527 280.473 62.7444 281.007 62.758 281.292C62.7715 281.574 62.7207 281.79 62.6945 281.888C62.641 282.088 62.5683 282.224 62.5566 282.246C62.5195 282.317 62.4997 282.34 62.5406 282.281C62.6087 282.183 62.7428 282.005 62.9614 281.732C63.3898 281.195 64.0526 280.402 64.9355 279.369C66.6966 277.308 69.2838 274.352 72.5064 270.711C78.9492 263.431 87.9061 253.441 97.8152 242.467L94.8464 239.787C84.9336 250.765 75.9665 260.765 69.511 268.06C66.2845 271.706 63.6789 274.683 61.8948 276.77C61.0051 277.811 60.3071 278.645 59.8355 279.236C59.6041 279.526 59.4033 279.787 59.2578 279.996C59.192 280.09 59.0957 280.233 59.0132 280.391C58.9788 280.456 58.8913 280.627 58.8307 280.853C58.801 280.964 58.7487 281.192 58.7626 281.483C58.7766 281.776 58.8707 282.317 59.3262 282.788L62.2016 280.007ZM97.8149 242.468C107.792 231.423 116.854 221.507 123.437 214.39C126.73 210.831 129.398 207.977 131.248 206.034C132.176 205.06 132.887 204.326 133.366 203.849C133.61 203.606 133.772 203.452 133.863 203.371C133.918 203.321 133.902 203.339 133.844 203.381C133.837 203.386 133.697 203.49 133.485 203.578C133.4 203.612 133.092 203.737 132.673 203.724C132.127 203.708 131.341 203.427 130.941 202.6L134.542 200.858C134.139 200.026 133.349 199.744 132.797 199.726C132.372 199.713 132.055 199.84 131.961 199.879C131.729 199.975 131.561 200.096 131.518 200.126C131.389 200.219 131.27 200.322 131.194 200.391C131.021 200.546 130.798 200.762 130.544 201.015C130.026 201.531 129.285 202.296 128.352 203.275C126.481 205.239 123.798 208.11 120.501 211.674C113.905 218.805 104.832 228.733 94.8467 239.786L97.8149 242.468ZM131.303 203.119C130.855 202.655 130.762 202.125 130.747 201.842C130.733 201.562 130.782 201.345 130.808 201.247C130.861 201.047 130.933 200.911 130.944 200.888C130.981 200.817 131.001 200.794 130.961 200.852C130.894 200.95 130.761 201.127 130.545 201.401C130.12 201.937 129.462 202.729 128.585 203.762C126.836 205.822 124.262 208.777 121.05 212.418C114.626 219.696 105.671 229.683 95.6946 240.654L98.6539 243.345C108.64 232.363 117.609 222.361 124.049 215.064C127.267 211.418 129.86 208.44 131.634 206.352C132.519 205.31 133.212 204.475 133.68 203.884C133.91 203.594 134.109 203.333 134.254 203.123C134.319 203.029 134.415 202.885 134.497 202.727C134.531 202.661 134.617 202.49 134.677 202.264C134.706 202.153 134.757 201.925 134.742 201.636C134.727 201.344 134.632 200.807 134.179 200.339L131.303 203.119ZM95.6898 240.659C85.7813 251.633 76.7543 261.549 70.1714 268.683C66.8787 272.252 64.204 275.117 62.3384 277.069C61.403 278.048 60.6845 278.783 60.1981 279.258C59.9496 279.501 59.7894 279.649 59.7027 279.723C59.649 279.769 59.6753 279.742 59.75 279.693C59.772 279.679 59.9171 279.583 60.1354 279.507C60.2417 279.471 60.4868 279.395 60.8108 279.401C61.162 279.408 61.7307 279.52 62.2016 280.007L59.3262 282.788C59.8015 283.279 60.3765 283.394 60.736 283.4C61.0683 283.407 61.3237 283.329 61.4421 283.288C61.6848 283.204 61.8619 283.091 61.9236 283.051C62.0778 282.951 62.214 282.838 62.3 282.765C62.4928 282.6 62.7311 282.376 62.9942 282.118C63.5308 281.594 64.2873 280.819 65.23 279.833C67.1205 277.855 69.8142 274.969 73.1112 271.396C79.7078 264.246 88.7454 254.318 98.6587 243.34L95.6898 240.659Z" fill="#0000CC" mask="url(#path-5-inside-1)"/>
<mask id="path-7-inside-2" fill="white">
<path d="M267.277 282.997C266.995 283.287 251.391 265.551 232.413 243.598C213.434 221.646 198.251 203.619 198.533 203.328C198.814 203.037 214.418 220.774 233.397 242.726C252.375 264.679 267.417 282.706 267.277 282.997Z"/>
</mask>
<path d="M267.277 282.997C266.995 283.287 251.391 265.551 232.413 243.598C213.434 221.646 198.251 203.619 198.533 203.328C198.814 203.037 214.418 220.774 233.397 242.726C252.375 264.679 267.417 282.706 267.277 282.997Z" fill="#57548D"/>
<path d="M267.277 282.997L268.714 284.387L268.937 284.156L269.077 283.867L267.277 282.997ZM265.839 281.606C266.302 281.127 266.864 281.007 267.229 281C267.561 280.994 267.812 281.073 267.922 281.113C268.147 281.193 268.296 281.294 268.319 281.31C268.397 281.362 268.426 281.393 268.375 281.348C268.294 281.276 268.142 281.129 267.904 280.887C267.438 280.412 266.75 279.678 265.854 278.7C264.068 276.748 261.507 273.883 258.355 270.315C252.053 263.18 243.413 253.264 233.926 242.29L230.9 244.906C240.391 255.885 249.042 265.813 255.357 272.963C258.513 276.536 261.093 279.422 262.904 281.401C263.807 282.387 264.533 283.163 265.049 283.688C265.301 283.946 265.532 284.172 265.719 284.339C265.803 284.413 265.938 284.529 266.092 284.633C266.154 284.674 266.333 284.793 266.582 284.881C266.704 284.925 266.965 285.006 267.305 285C267.678 284.993 268.247 284.87 268.714 284.387L265.839 281.606ZM233.926 242.29C224.44 231.319 215.906 221.331 209.78 214.052C206.717 210.412 204.261 207.456 202.593 205.397C201.756 204.364 201.13 203.572 200.726 203.037C200.52 202.764 200.394 202.588 200.332 202.492C200.294 202.434 200.314 202.459 200.35 202.532C200.362 202.556 200.43 202.694 200.477 202.894C200.5 202.992 200.543 203.206 200.524 203.48C200.504 203.755 200.406 204.268 199.97 204.718L197.095 201.938C196.655 202.393 196.554 202.913 196.534 203.197C196.514 203.48 196.558 203.704 196.585 203.815C196.638 204.042 196.72 204.214 196.753 204.282C196.831 204.442 196.922 204.587 196.985 204.683C197.123 204.894 197.314 205.156 197.533 205.446C197.98 206.038 198.641 206.874 199.485 207.915C201.177 210.004 203.651 212.981 206.72 216.628C212.86 223.924 221.407 233.926 230.9 244.906L233.926 242.29ZM199.97 204.718C199.507 205.198 198.945 205.317 198.58 205.324C198.248 205.331 197.997 205.251 197.887 205.212C197.662 205.132 197.513 205.03 197.49 205.015C197.412 204.962 197.383 204.932 197.434 204.977C197.515 205.049 197.667 205.195 197.906 205.438C198.371 205.912 199.059 206.646 199.955 207.625C201.741 209.576 204.302 212.442 207.454 216.01C213.756 223.144 222.397 233.06 231.884 244.034L234.91 241.418C225.418 230.44 216.767 220.511 210.452 213.362C207.296 209.789 204.716 206.902 202.905 204.924C202.002 203.937 201.276 203.162 200.761 202.636C200.508 202.379 200.278 202.153 200.09 201.986C200.007 201.912 199.872 201.796 199.717 201.692C199.655 201.651 199.476 201.532 199.227 201.443C199.105 201.4 198.844 201.319 198.504 201.325C198.131 201.332 197.563 201.454 197.095 201.938L199.97 204.718ZM231.884 244.034C241.367 255.004 249.866 264.991 255.974 272.27C259.029 275.91 261.482 278.868 263.159 280.931C264 281.964 264.637 282.762 265.056 283.305C265.268 283.58 265.409 283.769 265.488 283.882C265.532 283.945 265.531 283.949 265.512 283.915C265.507 283.906 265.459 283.825 265.411 283.702C265.388 283.645 265.337 283.507 265.305 283.32C265.284 283.198 265.202 282.692 265.476 282.126L269.077 283.867C269.353 283.297 269.271 282.784 269.249 282.653C269.216 282.457 269.161 282.308 269.133 282.238C269.075 282.089 269.009 281.973 268.979 281.92C268.91 281.8 268.831 281.683 268.768 281.593C268.632 281.399 268.445 281.15 268.223 280.861C267.772 280.277 267.109 279.447 266.262 278.407C264.566 276.321 262.099 273.346 259.038 269.699C252.916 262.403 244.404 252.401 234.91 241.418L231.884 244.034Z" fill="#0000CC" mask="url(#path-7-inside-2)"/>
<g opacity="0.5">
<g opacity="0.5">
<g opacity="0.5">
<path opacity="0.5" d="M261.372 142.85L161.42 225.717L62.0293 144.74" fill="black"/>
</g>
</g>
</g>
<path d="M72.0104 152.3L71.5886 87.8964L246.19 85.4249L248.298 153.172L161.42 224.699L72.0104 152.3Z" fill="#E3F2F7"/>
<path d="M72.0101 152.3C72.0101 152.3 72.5724 152.736 73.697 153.608C74.8217 154.48 76.3681 155.789 78.4768 157.388C82.6942 160.732 88.7392 165.675 96.6117 171.926C112.216 184.429 134.568 202.456 161.7 224.408H161.279C186.302 203.764 215.965 179.34 248.157 152.881L248.017 153.172C247.595 140.233 247.173 126.713 246.752 112.902C246.47 103.597 246.189 94.4385 245.908 85.4249L246.33 85.861C176.04 86.8787 113.903 87.6056 71.7289 88.1871L72.0101 87.8963C72.0101 108.25 72.0101 124.241 72.0101 135.29C72.0101 140.815 72.0101 145.031 72.0101 147.938C72.0101 149.392 72.0101 150.41 72.0101 151.137C72.0101 152.009 72.0101 152.3 72.0101 152.3C72.0101 152.3 72.0101 152.009 72.0101 151.282C72.0101 150.555 72.0101 149.392 72.0101 148.084C72.0101 145.176 71.8695 140.96 71.8695 135.436C71.7289 124.387 71.5883 108.25 71.4478 88.0417V87.751H71.7289C113.903 87.1694 175.899 86.1518 246.33 85.1341H246.752V85.5703C247.033 94.5838 247.314 103.743 247.595 113.047C248.017 126.858 248.439 140.379 248.86 153.317V153.463L248.72 153.608C216.527 180.067 186.864 204.491 161.841 224.99L161.7 225.135L161.56 224.99C134.147 202.892 111.794 184.72 96.1899 172.071C88.458 165.82 82.413 160.877 78.1956 157.388C76.0869 155.643 74.5405 154.48 73.5565 153.608C72.5724 152.736 72.0101 152.3 72.0101 152.3Z" fill="#E3F2F7"/>
<path d="M218.636 117.99C218.636 118.135 191.926 118.572 159.03 118.862C126.134 119.153 99.4236 119.153 99.4236 119.008C99.4236 118.862 126.134 118.426 159.03 118.135C191.926 117.699 218.636 117.699 218.636 117.99Z" fill="#263238"/>
<path d="M218.776 136.163C218.776 136.308 192.066 136.744 159.17 137.035C126.275 137.326 99.5642 137.326 99.5642 137.18C99.5642 137.035 126.275 136.599 159.17 136.308C192.066 136.017 218.776 135.872 218.776 136.163Z" fill="#263238"/>
<path d="M218.776 157.097C218.776 157.243 192.066 157.679 159.17 157.97C126.275 158.26 99.5642 158.26 99.5642 158.115C99.5642 157.97 126.275 157.533 159.17 157.243C192.066 156.952 218.776 156.807 218.776 157.097Z" fill="#263238"/>
<path d="M218.776 178.032C218.776 178.177 193.331 178.614 161.841 178.904C130.351 179.195 104.906 179.195 104.906 179.05C104.906 178.904 130.351 178.468 161.841 178.177C193.331 177.887 218.776 177.887 218.776 178.032Z" fill="#263238"/>
<path d="M196.564 196.495C196.564 196.495 196.283 196.495 195.862 196.641C195.299 196.641 194.596 196.641 193.893 196.786C192.066 196.786 189.535 196.931 186.583 196.931C180.257 197.077 171.682 197.222 162.263 197.368C152.703 197.513 144.128 197.658 137.942 197.658C134.85 197.658 132.46 197.658 130.632 197.658C129.789 197.658 129.226 197.658 128.664 197.658C128.242 197.658 127.961 197.658 127.961 197.658C127.961 197.658 128.242 197.658 128.664 197.513C129.226 197.513 129.929 197.513 130.632 197.368C132.46 197.368 134.99 197.222 137.942 197.222C144.269 197.077 152.844 196.931 162.263 196.786C171.822 196.641 180.398 196.495 186.583 196.495C189.676 196.495 192.066 196.495 193.893 196.495C194.737 196.495 195.299 196.495 195.862 196.495C196.283 196.495 196.564 196.495 196.564 196.495Z" fill="#263238"/>
<path d="M174.072 214.232C174.072 214.377 168.449 214.668 161.42 214.668C154.391 214.668 148.767 214.522 148.767 214.377C148.767 214.232 154.391 213.941 161.42 213.941C168.308 213.796 174.072 214.086 174.072 214.232Z" fill="#263238"/>
<g filter="url(#filter0_d)">
<ellipse cx="272.535" cy="287" rx="32.8775" ry="34" fill="#FB7270"/>
</g>
<g clip-path="url(#clip0)">
<path d="M285.724 269.153C285.508 268.984 285.212 268.959 284.969 269.09L251.369 287.29C251.126 287.421 250.983 287.687 251.011 287.963C251.035 288.239 251.221 288.474 251.484 288.559L261.035 291.676L260.111 301.132C260.081 301.432 260.247 301.717 260.524 301.834C260.611 301.875 260.707 301.895 260.8 301.895C260.994 301.895 261.185 301.813 261.319 301.659L267.343 294.854L276.413 303.795C276.544 303.923 276.719 303.995 276.9 303.995C276.963 303.995 277.026 303.984 277.088 303.967C277.326 303.902 277.512 303.71 277.572 303.47L285.972 269.87C286.038 269.602 285.942 269.32 285.724 269.153ZM262.44 291.548L276.099 280.504L266.791 293.391L261.697 299.141L262.44 291.548Z" fill="white"/>
</g>
<path d="M79.4336 56L86.3934 66.627H72.4739L79.4336 56Z" fill="#DAE7FC"/>
<path d="M37.4795 78.528C42.594 73.5441 51.1765 75.5212 53.7617 82.2789L61.9333 103.639C64.7958 111.121 58.2852 118.698 50.5291 116.912L26.1915 111.305C18.4355 109.518 15.6506 99.7995 21.3135 94.2812L37.4795 78.528Z" fill="#DAE7FC"/>
<path d="M46.0805 104.168C49.5845 104.168 51.5525 100.256 51.5525 96.536C51.5525 91.76 48.3125 88.496 42.7445 88.496C35.4725 88.496 30.3125 93.944 30.3125 100.88C30.3125 105.752 33.7445 108.872 39.0245 108.872C40.7525 108.872 42.4085 108.584 43.9205 107.936L43.5605 106.112C42.3365 106.712 40.8725 106.952 39.5765 106.952C35.1125 106.952 32.5445 104.792 32.5445 100.664C32.5445 94.832 36.6725 90.392 42.4085 90.392C46.9205 90.392 49.3445 92.6 49.3445 96.656C49.3445 98.96 48.4565 102.344 46.4885 102.344C45.2885 102.344 45.2165 101.504 45.4085 100.208L46.6085 93.344H44.2325L44.0165 94.544C43.4645 93.608 42.5045 93.128 41.0885 93.128C37.5605 93.128 35.1365 96.392 35.1365 100.016C35.1365 102.536 36.5765 104.168 39.0725 104.168C40.7285 104.168 42.3125 103.352 43.2965 102.104C43.5125 103.376 44.4245 104.168 46.0805 104.168ZM43.5365 97.832C43.5365 100.04 41.9765 102.056 39.9125 102.056C38.3525 102.056 37.6805 101.024 37.6805 99.608C37.6805 97.448 38.9525 95.216 41.1125 95.216C42.7205 95.216 43.5365 96.368 43.5365 97.832Z" fill="white"/>
<path d="M166.315 302.452C166.915 295.246 174.469 290.875 180.721 294.118L200.562 304.407C207.557 308.035 207.667 318.248 200.755 322.247L179.011 334.826C172.099 338.825 163.74 333.384 164.412 325.321L166.315 302.452Z" fill="#DAE7FC"/>
<path d="M186.856 320.224C190.36 320.224 192.328 316.312 192.328 312.592C192.328 307.816 189.088 304.552 183.52 304.552C176.248 304.552 171.088 310 171.088 316.936C171.088 321.808 174.52 324.928 179.8 324.928C181.528 324.928 183.184 324.64 184.696 323.992L184.336 322.168C183.112 322.768 181.648 323.008 180.352 323.008C175.888 323.008 173.32 320.848 173.32 316.72C173.32 310.888 177.448 306.448 183.184 306.448C187.696 306.448 190.12 308.656 190.12 312.712C190.12 315.016 189.232 318.4 187.264 318.4C186.064 318.4 185.992 317.56 186.184 316.264L187.384 309.4H185.008L184.792 310.6C184.24 309.664 183.28 309.184 181.864 309.184C178.336 309.184 175.912 312.448 175.912 316.072C175.912 318.592 177.352 320.224 179.848 320.224C181.504 320.224 183.088 319.408 184.072 318.16C184.288 319.432 185.2 320.224 186.856 320.224ZM184.312 313.888C184.312 316.096 182.752 318.112 180.688 318.112C179.128 318.112 178.456 317.08 178.456 315.664C178.456 313.504 179.728 311.272 181.888 311.272C183.496 311.272 184.312 312.424 184.312 313.888Z" fill="white"/>
<path d="M303.994 30.6146C310.91 30.2849 315.925 37.2217 313.663 43.9886L306.427 65.6312C303.838 73.3727 293.924 75.0342 289.212 68.5163L274.328 47.9283C269.616 41.4103 273.961 32.0465 281.874 31.6693L303.994 30.6146Z" fill="#DAE7FC"/>
<path d="M298.376 54.2242C301.88 54.2242 303.848 50.3122 303.848 46.5922C303.848 41.8162 300.608 38.5522 295.04 38.5522C287.768 38.5522 282.608 44.0002 282.608 50.9362C282.608 55.8082 286.04 58.9282 291.32 58.9282C293.048 58.9282 294.704 58.6402 296.216 57.9922L295.856 56.1682C294.632 56.7682 293.168 57.0082 291.872 57.0082C287.408 57.0082 284.84 54.8482 284.84 50.7202C284.84 44.8882 288.968 40.4482 294.704 40.4482C299.216 40.4482 301.64 42.6562 301.64 46.7122C301.64 49.0162 300.752 52.4002 298.784 52.4002C297.584 52.4002 297.512 51.5602 297.704 50.2642L298.904 43.4002H296.528L296.312 44.6002C295.76 43.6642 294.8 43.1842 293.384 43.1842C289.856 43.1842 287.432 46.4482 287.432 50.0722C287.432 52.5922 288.872 54.2242 291.368 54.2242C293.024 54.2242 294.608 53.4082 295.592 52.1602C295.808 53.4322 296.72 54.2242 298.376 54.2242ZM295.832 47.8882C295.832 50.0962 294.272 52.1122 292.208 52.1122C290.648 52.1122 289.976 51.0802 289.976 49.6642C289.976 47.5042 291.248 45.2722 293.408 45.2722C295.016 45.2722 295.832 46.4242 295.832 47.8882Z" fill="white"/>
<path d="M193.817 87.6012L188.279 98.8592L179.989 89.0021L193.817 87.6012Z" fill="#DAE7FC"/>
<path d="M9.85861 178.031L23.7723 178.383L16.4695 188.83L9.85861 178.031Z" fill="#DAE7FC"/>
<path d="M327.383 211.996L316.577 219.732L314.381 207.614L327.383 211.996Z" fill="#DAE7FC"/>
<path d="M236.509 317.996L225.704 325.732L223.507 313.614L236.509 317.996Z" fill="#DAE7FC"/>
<defs>
<filter id="filter0_d" x="237.657" y="253" width="73.755" height="77" filterUnits="userSpaceOnUse" color-interpolation-filters="sRGB">
<feFlood flood-opacity="0" result="BackgroundImageFix"/>
<feColorMatrix in="SourceAlpha" type="matrix" values="0 0 0 0 0 0 0 0 0 0 0 0 0 0 0 0 0 0 127 0"/>
<feOffset dx="2" dy="5"/>
<feGaussianBlur stdDeviation="2"/>
<feColorMatrix type="matrix" values="0 0 0 0 0.984314 0 0 0 0 0.447059 0 0 0 0 0.439216 0 0 0 0.2 0"/>
<feBlend mode="normal" in2="BackgroundImageFix" result="effect1_dropShadow"/>
<feBlend mode="normal" in="SourceGraphic" in2="effect1_dropShadow" result="shape"/>
</filter>
<linearGradient id="paint0_linear" x1="20.9998" y1="172.946" x2="307" y2="172.946" gradientUnits="userSpaceOnUse">
<stop offset="0.0485" stop-color="#FFDBED"/>
<stop offset="0.9993" stop-color="#D2DEFF"/>
</linearGradient>
<clipPath id="clip0">
<rect width="35" height="35" fill="white" transform="translate(251 269)"/>
</clipPath>
</defs>
</svg>
